<?xml version="1.0" encoding="UTF-8"?>
<!DOCTYPE svg  PUBLIC '-//W3C//DTD SVG 1.1//EN'  'http://www.w3.org/Graphics/SVG/1.1/DTD/svg11.dtd'>
<svg clip-rule="evenodd" fill-rule="evenodd" stroke-linecap="round" stroke-miterlimit="2" version="1.1" viewBox="0 0 2363 2363" xml:space="preserve" xmlns="http://www.w3.org/2000/svg">
    <g transform="matrix(1.4517 0 0 1.4517 -343.91 -408.17)">
        <path d="m1770.2 535.82c0-69.749-56.63-126.38-126.37-126.38h-962.04c-69.749 0-126.38 56.627-126.38 126.38v962.03c0 69.75 56.628 126.38 126.38 126.38h962.04c69.74 0 126.37-56.63 126.37-126.38v-962.03z" fill="#ebebeb" stroke="#000" stroke-width="28px"/>
    </g>
    <g transform="matrix(1.4517 0 0 1.4517 -622.92 -161.29)">
        <path d="m1770.2 535.82c0-69.749-56.63-126.38-126.37-126.38h-962.04c-69.749 0-126.38 56.627-126.38 126.38v962.03c0 69.75 56.628 126.38 126.38 126.38h962.04c69.74 0 126.37-56.63 126.37-126.38v-962.03z" fill="#ebebeb" stroke="#000" stroke-width="28px"/>
    </g>
</svg>