<?xml version="1.0" encoding="UTF-8" standalone="no"?>
<!DOCTYPE svg PUBLIC "-//W3C//DTD SVG 1.1//EN" "http://www.w3.org/Graphics/SVG/1.1/DTD/svg11.dtd">
<svg width="100%" height="100%" viewBox="0 0 20 25" version="1.1" xmlns="http://www.w3.org/2000/svg" xmlns:xlink="http://www.w3.org/1999/xlink" xml:space="preserve" xmlns:serif="http://www.serif.com/" style="fill-rule:evenodd;clip-rule:evenodd;stroke-linejoin:round;stroke-miterlimit:2;">
    <g transform="matrix(1.11872,0,0,1.11872,0,0)">
        <path d="M15.8,7.9C15.8,12.3 12.3,15.8 7.9,15.8C3.5,15.8 0,12.3 0,7.9C0,3.5 3.5,0 7.9,0C12.3,0 15.8,3.5 15.8,7.9ZM2,7.9C2,11.2 4.6,13.8 7.9,13.8C11.2,13.8 13.8,11.2 13.8,7.9C13.8,4.6 11.2,2 7.9,2C4.6,2 2,4.6 2,7.9Z" style="fill:white;fill-rule:nonzero;"/>
    </g>
    <g transform="matrix(1.09592,0.224748,-0.224748,1.09592,2.26562,-1.08928)">
        <path d="M12.26,13.74L13.67,12.33L19.97,18.62L18.55,20.03L12.26,13.74Z" style="fill:white;fill-rule:nonzero;"/>
    </g>
</svg>
